<mxfile host="65bd71144e">
    <diagram id="i9rjFB1QKqu30Op5k9R0" name="Page-1">
        <mxGraphModel dx="2026" dy="1162" grid="1" gridSize="10" guides="1" tooltips="1" connect="1" arrows="1" fold="1" page="1" pageScale="1" pageWidth="850" pageHeight="1100" math="0" shadow="0">
            <root>
                <mxCell id="0"/>
                <mxCell id="1" parent="0"/>
                <mxCell id="2" value="" style="aspect=fixed;html=1;points=[];align=center;image;fontSize=12;image=img/lib/azure2/general/Dev_Console.svg;" parent="1" vertex="1">
                    <mxGeometry x="80" y="350" width="65" height="52" as="geometry"/>
                </mxCell>
                <mxCell id="3" value="" style="aspect=fixed;html=1;points=[];align=center;image;fontSize=12;image=img/lib/azure2/containers/App_Services.svg;" parent="1" vertex="1">
                    <mxGeometry x="640" y="90" width="64" height="64" as="geometry"/>
                </mxCell>
                <mxCell id="4" value="MTGitlab" style="text;html=1;strokeColor=none;fillColor=none;align=center;verticalAlign=middle;whiteSpace=wrap;rounded=0;" parent="1" vertex="1">
                    <mxGeometry x="640" y="50" width="60" height="30" as="geometry"/>
                </mxCell>
                <mxCell id="5" value="Dev Workstation" style="text;html=1;strokeColor=none;fillColor=none;align=center;verticalAlign=middle;whiteSpace=wrap;rounded=0;" parent="1" vertex="1">
                    <mxGeometry x="80" y="310" width="60" height="30" as="geometry"/>
                </mxCell>
                <mxCell id="6" value="" style="aspect=fixed;html=1;points=[];align=center;image;fontSize=12;image=img/lib/azure2/other/Fiji.svg;" parent="1" vertex="1">
                    <mxGeometry x="750" y="980" width="54" height="68" as="geometry"/>
                </mxCell>
                <mxCell id="7" value="DataCenter&lt;br&gt;Bare Metal" style="text;html=1;strokeColor=none;fillColor=none;align=center;verticalAlign=middle;whiteSpace=wrap;rounded=0;" parent="1" vertex="1">
                    <mxGeometry x="750" y="1060" width="60" height="30" as="geometry"/>
                </mxCell>
                <mxCell id="8" value="" style="aspect=fixed;html=1;points=[];align=center;image;fontSize=12;image=img/lib/azure2/compute/VM_Scale_Sets.svg;" parent="1" vertex="1">
                    <mxGeometry x="730" y="730" width="68" height="68" as="geometry"/>
                </mxCell>
                <mxCell id="10" value="" style="aspect=fixed;html=1;points=[];align=center;image;fontSize=12;image=img/lib/azure2/compute/Virtual_Machine.svg;" parent="1" vertex="1">
                    <mxGeometry x="220" y="732" width="69" height="64" as="geometry"/>
                </mxCell>
                <mxCell id="11" value="" style="aspect=fixed;html=1;points=[];align=center;image;fontSize=12;image=img/lib/azure2/compute/Virtual_Machine.svg;" parent="1" vertex="1">
                    <mxGeometry x="340" y="734" width="69" height="64" as="geometry"/>
                </mxCell>
                <mxCell id="12" value="" style="aspect=fixed;html=1;points=[];align=center;image;fontSize=12;image=img/lib/azure2/compute/Virtual_Machine.svg;" parent="1" vertex="1">
                    <mxGeometry x="460" y="734" width="69" height="64" as="geometry"/>
                </mxCell>
                <mxCell id="13" value="ethosapitest" style="text;html=1;strokeColor=none;fillColor=none;align=center;verticalAlign=middle;whiteSpace=wrap;rounded=0;" parent="1" vertex="1">
                    <mxGeometry x="224.5" y="690" width="60" height="30" as="geometry"/>
                </mxCell>
                <mxCell id="14" value="beptest" style="text;html=1;strokeColor=none;fillColor=none;align=center;verticalAlign=middle;whiteSpace=wrap;rounded=0;" parent="1" vertex="1">
                    <mxGeometry x="344.5" y="690" width="60" height="30" as="geometry"/>
                </mxCell>
                <mxCell id="15" value="bantestapp" style="text;html=1;strokeColor=none;fillColor=none;align=center;verticalAlign=middle;whiteSpace=wrap;rounded=0;" parent="1" vertex="1">
                    <mxGeometry x="464.5" y="690" width="60" height="30" as="geometry"/>
                </mxCell>
                <mxCell id="16" value="inbtest" style="text;html=1;strokeColor=none;fillColor=none;align=center;verticalAlign=middle;whiteSpace=wrap;rounded=0;" parent="1" vertex="1">
                    <mxGeometry x="575.5" y="690" width="60" height="30" as="geometry"/>
                </mxCell>
                <mxCell id="17" value="ssbtest 1-6" style="text;html=1;strokeColor=none;fillColor=none;align=center;verticalAlign=middle;whiteSpace=wrap;rounded=0;" parent="1" vertex="1">
                    <mxGeometry x="731" y="690" width="66" height="30" as="geometry"/>
                </mxCell>
                <mxCell id="18" value="" style="aspect=fixed;html=1;points=[];align=center;image;fontSize=12;image=img/lib/azure2/compute/Virtual_Machine.svg;" parent="1" vertex="1">
                    <mxGeometry x="110" y="732" width="69" height="64" as="geometry"/>
                </mxCell>
                <mxCell id="19" value="emstest" style="text;html=1;strokeColor=none;fillColor=none;align=center;verticalAlign=middle;whiteSpace=wrap;rounded=0;" parent="1" vertex="1">
                    <mxGeometry x="114.5" y="690" width="60" height="30" as="geometry"/>
                </mxCell>
                <mxCell id="20" value="" style="aspect=fixed;html=1;points=[];align=center;image;fontSize=12;image=img/lib/azure2/compute/VM_Scale_Sets.svg;" parent="1" vertex="1">
                    <mxGeometry x="571.5" y="730" width="68" height="68" as="geometry"/>
                </mxCell>
                <mxCell id="21" value="Test Servers" style="text;html=1;strokeColor=none;fillColor=none;align=center;verticalAlign=middle;whiteSpace=wrap;rounded=0;" parent="1" vertex="1">
                    <mxGeometry x="403" y="842" width="95" height="30" as="geometry"/>
                </mxCell>
                <mxCell id="22" value="" style="shape=curlyBracket;whiteSpace=wrap;html=1;rounded=1;flipH=1;labelPosition=right;verticalLabelPosition=middle;align=left;verticalAlign=middle;direction=north;" parent="1" vertex="1">
                    <mxGeometry x="100" y="813" width="700" height="20" as="geometry"/>
                </mxCell>
                <mxCell id="23" value="server management script repo" style="text;html=1;strokeColor=none;fillColor=none;align=center;verticalAlign=middle;whiteSpace=wrap;rounded=0;" parent="1" vertex="1">
                    <mxGeometry x="347" y="50" width="60" height="30" as="geometry"/>
                </mxCell>
                <mxCell id="24" value="" style="aspect=fixed;html=1;points=[];align=center;image;fontSize=12;image=img/lib/azure2/general/Code.svg;" parent="1" vertex="1">
                    <mxGeometry x="345" y="94" width="64" height="52" as="geometry"/>
                </mxCell>
                <mxCell id="25" value="" style="shape=flexArrow;endArrow=classic;html=1;" parent="1" edge="1">
                    <mxGeometry width="50" height="50" relative="1" as="geometry">
                        <mxPoint x="630" y="120" as="sourcePoint"/>
                        <mxPoint x="410" y="120" as="targetPoint"/>
                    </mxGeometry>
                </mxCell>
                <mxCell id="26" value="hosted on gitlab" style="text;html=1;strokeColor=none;fillColor=none;align=center;verticalAlign=middle;whiteSpace=wrap;rounded=0;" parent="1" vertex="1">
                    <mxGeometry x="490" y="80" width="60" height="30" as="geometry"/>
                </mxCell>
                <mxCell id="28" value="dev pulls down code changes" style="text;html=1;strokeColor=none;fillColor=none;align=center;verticalAlign=middle;whiteSpace=wrap;rounded=0;" parent="1" vertex="1">
                    <mxGeometry x="119" y="146" width="60" height="30" as="geometry"/>
                </mxCell>
                <mxCell id="29" value="" style="endArrow=classic;html=1;" parent="1" edge="1">
                    <mxGeometry width="50" height="50" relative="1" as="geometry">
                        <mxPoint x="340" y="110" as="sourcePoint"/>
                        <mxPoint x="150" y="350" as="targetPoint"/>
                        <Array as="points">
                            <mxPoint x="190" y="190"/>
                        </Array>
                    </mxGeometry>
                </mxCell>
                <mxCell id="30" value="" style="endArrow=classic;html=1;exitX=1.046;exitY=0.558;exitDx=0;exitDy=0;exitPerimeter=0;" parent="1" source="2" target="24" edge="1">
                    <mxGeometry width="50" height="50" relative="1" as="geometry">
                        <mxPoint x="340" y="400" as="sourcePoint"/>
                        <mxPoint x="390" y="350" as="targetPoint"/>
                        <Array as="points">
                            <mxPoint x="340" y="270"/>
                        </Array>
                    </mxGeometry>
                </mxCell>
                <mxCell id="31" value="dev pushes up changes" style="text;html=1;strokeColor=none;fillColor=none;align=center;verticalAlign=middle;whiteSpace=wrap;rounded=0;" parent="1" vertex="1">
                    <mxGeometry x="360" y="240" width="60" height="30" as="geometry"/>
                </mxCell>
                <mxCell id="32" value="basically cloud save/sync with rollbock options" style="text;html=1;strokeColor=none;fillColor=none;align=center;verticalAlign=middle;whiteSpace=wrap;rounded=0;" parent="1" vertex="1">
                    <mxGeometry x="224.5" y="220" width="60" height="30" as="geometry"/>
                </mxCell>
                <mxCell id="34" value="" style="endArrow=classic;html=1;exitX=0.369;exitY=1;exitDx=0;exitDy=0;exitPerimeter=0;entryX=0.25;entryY=0;entryDx=0;entryDy=0;" parent="1" source="2" target="19" edge="1">
                    <mxGeometry width="50" height="50" relative="1" as="geometry">
                        <mxPoint x="700" y="640" as="sourcePoint"/>
                        <mxPoint x="180" y="620" as="targetPoint"/>
                    </mxGeometry>
                </mxCell>
                <mxCell id="35" value="" style="endArrow=classic;html=1;exitX=0.354;exitY=1;exitDx=0;exitDy=0;exitPerimeter=0;entryX=0.5;entryY=0;entryDx=0;entryDy=0;" parent="1" source="2" target="13" edge="1">
                    <mxGeometry width="50" height="50" relative="1" as="geometry">
                        <mxPoint x="113.98500000000013" y="412" as="sourcePoint"/>
                        <mxPoint x="139.5" y="700" as="targetPoint"/>
                    </mxGeometry>
                </mxCell>
                <mxCell id="36" value="" style="endArrow=classic;html=1;exitX=0.369;exitY=1.019;exitDx=0;exitDy=0;exitPerimeter=0;entryX=0.5;entryY=0;entryDx=0;entryDy=0;" parent="1" source="2" target="14" edge="1">
                    <mxGeometry width="50" height="50" relative="1" as="geometry">
                        <mxPoint x="113.01000000000022" y="412" as="sourcePoint"/>
                        <mxPoint x="264.5" y="700" as="targetPoint"/>
                    </mxGeometry>
                </mxCell>
                <mxCell id="37" value="" style="endArrow=classic;html=1;exitX=0.369;exitY=0.981;exitDx=0;exitDy=0;exitPerimeter=0;entryX=0.5;entryY=0;entryDx=0;entryDy=0;" parent="1" source="2" target="15" edge="1">
                    <mxGeometry width="50" height="50" relative="1" as="geometry">
                        <mxPoint x="113.98500000000013" y="412.98800000000006" as="sourcePoint"/>
                        <mxPoint x="384.5" y="700" as="targetPoint"/>
                    </mxGeometry>
                </mxCell>
                <mxCell id="38" value="" style="endArrow=classic;html=1;exitX=0.354;exitY=0.981;exitDx=0;exitDy=0;exitPerimeter=0;entryX=0.5;entryY=0;entryDx=0;entryDy=0;" parent="1" source="2" target="16" edge="1">
                    <mxGeometry width="50" height="50" relative="1" as="geometry">
                        <mxPoint x="113.98500000000013" y="411.01199999999994" as="sourcePoint"/>
                        <mxPoint x="504.5" y="700" as="targetPoint"/>
                    </mxGeometry>
                </mxCell>
                <mxCell id="39" value="" style="endArrow=classic;html=1;exitX=0.338;exitY=0.981;exitDx=0;exitDy=0;exitPerimeter=0;entryX=0.5;entryY=0;entryDx=0;entryDy=0;" parent="1" source="2" target="17" edge="1">
                    <mxGeometry width="50" height="50" relative="1" as="geometry">
                        <mxPoint x="113.01000000000022" y="411.01199999999994" as="sourcePoint"/>
                        <mxPoint x="615.5" y="700" as="targetPoint"/>
                    </mxGeometry>
                </mxCell>
                <mxCell id="40" value="dev triggers script to cause state change on servers" style="text;html=1;strokeColor=none;fillColor=none;align=center;verticalAlign=middle;whiteSpace=wrap;rounded=0;" parent="1" vertex="1">
                    <mxGeometry x="370" y="470" width="130" height="30" as="geometry"/>
                </mxCell>
                <mxCell id="42" value="" style="ellipse;shape=cloud;whiteSpace=wrap;html=1;" parent="1" vertex="1">
                    <mxGeometry x="580" y="270" width="200" height="80" as="geometry"/>
                </mxCell>
                <mxCell id="41" value="this is the problem that ansible was designed to solve" style="text;html=1;strokeColor=none;fillColor=none;align=center;verticalAlign=middle;whiteSpace=wrap;rounded=0;" parent="1" vertex="1">
                    <mxGeometry x="620" y="300" width="130" height="30" as="geometry"/>
                </mxCell>
                <mxCell id="44" value="" style="ellipse;shape=cloud;whiteSpace=wrap;html=1;" parent="1" vertex="1">
                    <mxGeometry x="604" y="380" width="200" height="80" as="geometry"/>
                </mxCell>
                <mxCell id="43" value="This method works because of ssh and rsa key pairs" style="text;html=1;strokeColor=none;fillColor=none;align=center;verticalAlign=middle;whiteSpace=wrap;rounded=0;" parent="1" vertex="1">
                    <mxGeometry x="650" y="390" width="120" height="70" as="geometry"/>
                </mxCell>
                <mxCell id="45" value="Push Method" style="text;strokeColor=none;fillColor=none;html=1;fontSize=24;fontStyle=1;verticalAlign=middle;align=center;" parent="1" vertex="1">
                    <mxGeometry x="30" width="100" height="40" as="geometry"/>
                </mxCell>
                <mxCell id="47" value="" style="ellipse;shape=cloud;whiteSpace=wrap;html=1;" parent="1" vertex="1">
                    <mxGeometry x="644" y="505" width="200" height="80" as="geometry"/>
                </mxCell>
                <mxCell id="46" value="treats each server more like a container&lt;br&gt;think cattle vs pet" style="text;html=1;strokeColor=none;fillColor=none;align=center;verticalAlign=middle;whiteSpace=wrap;rounded=0;" parent="1" vertex="1">
                    <mxGeometry x="684" y="510" width="120" height="70" as="geometry"/>
                </mxCell>
                <mxCell id="48" value="" style="endArrow=classic;html=1;exitX=1;exitY=0.5;exitDx=0;exitDy=0;entryX=0.481;entryY=-0.074;entryDx=0;entryDy=0;entryPerimeter=0;" edge="1" parent="1" source="21" target="6">
                    <mxGeometry width="50" height="50" relative="1" as="geometry">
                        <mxPoint x="400" y="620" as="sourcePoint"/>
                        <mxPoint x="450" y="570" as="targetPoint"/>
                        <Array as="points">
                            <mxPoint x="776" y="860"/>
                        </Array>
                    </mxGeometry>
                </mxCell>
                <mxCell id="49" value="hosted" style="text;html=1;strokeColor=none;fillColor=none;align=center;verticalAlign=middle;whiteSpace=wrap;rounded=0;" vertex="1" parent="1">
                    <mxGeometry x="700" y="874" width="60" height="30" as="geometry"/>
                </mxCell>
                <mxCell id="50" value="&lt;h1&gt;Pros&lt;/h1&gt;&lt;p&gt;Lorem ipsum dolor sit amet, consectetur adipisicing elit, sed do eiusmod tempor incididunt ut labore et dolore magna aliqua.&lt;/p&gt;" style="text;html=1;strokeColor=none;fillColor=none;spacing=5;spacingTop=-20;whiteSpace=wrap;overflow=hidden;rounded=0;" vertex="1" parent="1">
                    <mxGeometry x="17.5" y="887" width="190" height="120" as="geometry"/>
                </mxCell>
                <mxCell id="51" value="&lt;h1&gt;Cons&lt;/h1&gt;&lt;p&gt;Lorem ipsum dolor sit amet, consectetur adipisicing elit, sed do eiusmod tempor incididunt ut labore et dolore magna aliqua.&lt;/p&gt;" style="text;html=1;strokeColor=none;fillColor=none;spacing=5;spacingTop=-20;whiteSpace=wrap;overflow=hidden;rounded=0;" vertex="1" parent="1">
                    <mxGeometry x="320" y="887" width="190" height="120" as="geometry"/>
                </mxCell>
            </root>
        </mxGraphModel>
    </diagram>
</mxfile>